# AST/ASF file generated using VICON BodyLanguage
# -----------------------------------------------
:version 1.10
:name VICON
:units
  mass 1.0
  length 0.45
  angle deg
:documentation
   .ast/.asf automatically generated from VICON data using
   VICON BodyBuilder and BodyLanguage model FoxedUp or BRILLIANT.MOD
:root
   order TX TY TZ RX RY RZ
   axis XYZ
   position 0 0 0  
   orientation 0 0 0 
:bonedata
  begin
     id 1 
     name lhipjoint
     direction 0.62366 -0.717238 0.310833 
     length 2.53602 
     axis 0 0 0  XYZ
  end
  begin
     id 2 
     name lfemur
     direction 0.34202 -0.939693 0  
     length 7.40817  
     axis 0 0 20  XYZ
    dof rx ry rz
    limits (-160.0 20.0)
           (-70.0 70.0)
           (-60.0 70.0)
  end
  begin
     id 3 
     name ltibia
     direction 0.34202 -0.939693 0   
     length 7.7045   
     axis 0 0 20   XYZ
    dof rx
    limits (-10.0 170.0)
  end
  begin
     id 4 
     name lfoot
     direction 0.0673888 -0.185149 0.980397   
     length 2.09456   
     axis -90 7.62852e-016 20   XYZ
    dof rx rz
    limits (-45.0 90.0)
           (-70.0 20.0)
  end
  begin
     id 5 
     name ltoes
     direction 1.53575e-011 -4.21994e-011 1   
     length 1.05543   
     axis -90 7.62852e-016 20   XYZ
    dof rx
    limits (-90.0 20.0)
  end
  begin
     id 6 
     name rhipjoint
     direction -0.489018 -0.800347 0.346851   
     length 2.27268  
     axis 0 0 0  XYZ 
  end
  begin
     id 7 
     name rfemur
     direction -0.34202 -0.939693 0   
     length 7.55487   
     axis 0 0 -20   XYZ
    dof rx ry rz
    limits (-160.0 20.0)
           (-70.0 70.0)
           (-70.0 60.0)
  end
  begin
     id 8 
     name rtibia
     direction -0.34202 -0.939693 0   
     length 7.78969   
     axis 0 0 -20   XYZ
    dof rx
    limits (-10.0 170.0)
 end
 begin
     id 9 
     name rfoot
     direction -0.0859318 -0.236096 0.967923   
     length 2.19143  
     axis -90 -7.62852e-016 -20   XYZ
    dof rx rz
    limits (-45.0 90.0)
           (-20.0 70.0)
  end
  begin
     id 10 
     name rtoes
     direction -1.53538e-011 -4.21989e-011 1   
     length 1.09845   
     axis -90 -7.62852e-016 -20   XYZ
    dof rx
    limits (-90.0 20.0)
  end
  begin
     id 11 
     name lowerback
     direction -0.00762546 0.998978 -0.0445553   
     length 1.98161   
     axis 0 0 0   XYZ
    dof rx ry rz
    limits (-20.0 45.0)
           (-30.0 30.0)
           (-30.0 30.0)
  end
  begin
     id 12 
     name upperback
     direction 0.0422361 0.998867 -0.0219156   
     length 1.97558   
     axis 0 0 0   XYZ
    dof rx ry rz
    limits (-20.0 45.0)
           (-30.0 30.0)
           (-30.0 30.0)
  end
  begin
     id 13 
     name thorax
     direction 0.0442465 0.999021 7.47603e-005   
     length 1.97799   
     axis 0 0 0   XYZ
    dof rx ry rz
    limits (-20.0 45.0)
           (-30.0 30.0)
           (-30.0 30.0)
  end
  begin
     id 14 
     name lowerneck
     direction 0.00312169 0.984641 0.174564   
     length 1.78995   
     axis 0 0 0   XYZ
    dof rx ry rz
    limits (-20.0 45.0)
           (-30.0 30.0)
           (-30.0 30.0)
  end
  begin
     id 15 
     name upperneck
     direction -0.0383028 0.985255 -0.166749   
     length 1.83053   
     axis 0 0 0   XYZ
    dof rx ry rz
    limits (-20.0 45.0)
           (-30.0 30.0)
           (-30.0 30.0)
  end
  begin
     id 16
     name head
     direction -0.0129546 0.997059 -0.0755386  
     length 1.84088  
     axis 0 0 0   XYZ
    dof rx ry rz
    limits (-20.0 45.0)
           (-30.0 30.0)
           (-30.0 30.0)
  end
  begin
     id 17 
     name lclavicle
     direction 0.912857 0.370519 -0.171488  
     length 3.51279  
     axis 0 0 0   XYZ
    dof ry rz
    limits (-20.0 10.0)
           (0.0 20.0)
  end
  begin
     id 18 
     name lhumerus
     direction 1 -4.48962e-011 3.64361e-027   
     length 4.95663   
     axis 180 -30 -90   XYZ
    dof rx ry rz
    limits (-60.0 90.0)
           (-90.0 90.0)
           (-90.0 90.0)
  end
  begin
     id 19
     name lradius
     direction 1 -4.48974e-011 5.97202e-027   
     length 3.38177   
     axis 180 -30 -90   XYZ
    dof rx
    limits (-10.0 170.0)
  end
  begin
     id 20
     name lwrist
     direction 1 -4.4896e-011 9.83288e-027   
     length 1.69088   
     axis -9.31221e-015 90 90   XYZ
    dof ry
    limits (-180.0 0.0)
 end
  begin
     id 21 
     name lhand
     direction 1 -4.4902e-011 1.96551e-026   
     length 0.662909   
     axis -1.25475e-014 90 90   XYZ
    dof rx rz
    limits (-90.0 90.0)
           (-45.0 45.0)
  end
  begin
     id 22 
     name lfingers
     direction 1 -4.48971e-011 3.93277e-026   
     length 0.534454   
     axis -2.50945e-014 90 90   XYZ
    dof rx
    limits (0.0 90.0)
  end
  begin
     id 23
     name lthumb
     direction 0.707107 -6.34933e-011 0.707107   
     length 0.767373   
     axis -90 45 -4.80359e-014   XYZ
    dof rx rz
    limits (-45.0 45.0)
           (-45.0 45.0)
  end
  begin
     id 24 
     name rclavicle
     direction -0.900919 0.395364 -0.178976   
     length 3.40627  
     axis 0 0 0   XYZ 
    dof ry rz
    limits (-10.0 20.0)
           (-20.0 0.0)
  end
  begin
     id 25 
     name rhumerus
     direction -1 -4.48969e-011 1.03875e-027  
     length 5.08365   
     axis 180 30 90   XYZ
    dof rx ry rz
    limits (-90.0 60.0)
           (-90.0 90.0)
           (-90.0 90.0)
  end
  begin
     id 26 
     name rradius
     direction -1 -4.48951e-011 5.02733e-027   
     length 3.35984   
     axis 180 30 90   XYZ
    dof rx
    limits (-10.0 170.0)
  end
  begin
     id 27 
     name rwrist
     direction -1 -4.49011e-011 9.82828e-027   
     length 1.67992   
     axis -9.31221e-015 -90 -90   XYZ
    dof ry
    limits (-180.0 0.0)
  end
  begin
     id 28
     name rhand
     direction -1 -4.48894e-011 1.96774e-026   
     length 0.820764   
     axis -1.25475e-014 -90 -90   XYZ
    dof rx rz
    limits (-90.0 90.0)
           (-45.0 45.0)
  end
  begin
     id 29
     name rfingers
     direction -1 -4.49095e-011 3.92833e-026   
     length 0.661721   
     axis -2.50945e-014 -90 -90   XYZ
    dof rx
    limits (0.0 90.0)
  end
  begin
     id 30
     name rthumb
     direction -0.707107 -6.34881e-011 0.707107   
     length 0.950103   
     axis -90 -45 4.80359e-014   XYZ
    dof rx rz
    limits (-45.0 45.0)
           (-45.0 45.0)
  end
:hierarchy
  begin
    root lhipjoint rhipjoint lowerback
    lhipjoint lfemur
    lfemur ltibia
    ltibia lfoot
    lfoot ltoes
    rhipjoint rfemur
    rfemur rtibia
    rtibia rfoot
    rfoot rtoes
    lowerback upperback
    upperback thorax
    thorax lowerneck lclavicle rclavicle
    lowerneck upperneck
    upperneck head
    lclavicle lhumerus
    lhumerus lradius
    lradius lwrist
    lwrist lhand lthumb
    lhand lfingers
    rclavicle rhumerus
    rhumerus rradius
    rradius rwrist
    rwrist rhand rthumb
    rhand rfingers
  end

#!OML:ASF I:\golf\golf\golf 2\Subject 1\2002-09-07\Subject1.ASF
:FULLY-SPECIFIED
:DEGREES
83
root -7.28105 17.7782 0.438402 -23.4441 86.6629 -37.6886
lowerback 3.20821 2.49906 -4.57346
upperback 3.39463 3.2969 3.5624
thorax 1.24521 1.56306 6.18786
lowerneck -15.2781 -0.67385 0.902234
upperneck 37.5163 1.77608 -3.68095
head 15.9219 0.853264 -1.29647
rclavicle 7.55382e-015 5.80451e-014
rhumerus -9.3085 2.3228 -102.766
rradius 28.7306
rwrist -43.8096
rhand -21.9793 -9.37734
rfingers 7.12502
rthumb 4.4288 -39.311
lclavicle 7.55382e-015 5.80451e-014
lhumerus -7.82435 -55.4715 106.376
lradius 25.2198
lwrist 36.7223
lhand 1.46514 66.976
lfingers 7.12502
lthumb -153.007 84.9325
rfemur -30.117 1.7601 11.4071
rtibia 32.5618
rfoot -11.1461 -8.78633
rtoes -1.94208
lfemur -26.8481 7.47207 -10.2904
ltibia 28.1841
lfoot -12.1264 -3.98937
ltoes -20.1482
84
root -7.28876 17.7765 0.459223 -20.4322 86.2736 -34.639
lowerback 3.25343 2.57096 -4.83965
upperback 3.4298 3.38542 3.49129
thorax 1.23453 1.60206 6.26042
lowerneck -15.2036 -0.606773 0.930977
upperneck 37.4005 1.83532 -3.64571
head 15.8468 0.883061 -1.27505
rclavicle -2.42517e-014 -1.90833e-014
rhumerus -9.56529 2.65831 -102.829
rradius 29.5207
rwrist -44.968
rhand -22.8842 -9.50122
rfingers 7.12502
rthumb 3.55494 -39.4513
lclavicle -2.42517e-014 -1.90833e-014
lhumerus -7.35946 -56.2958 105.765
lradius 24.9963
lwrist 36.0155
lhand 3.84674 66.365
lfingers 7.12502
lthumb -150.731 85.9179
rfemur -30.2865 2.07494 11.4876
rtibia 32.6918
rfoot -11.24 -8.45844
rtoes -0.708043
lfemur -26.659 7.51928 -10.1282
ltibia 28.1444
lfoot -12.0744 -3.57567
ltoes -20.3646
85
root -7.29723 17.7749 0.479815 -19.2778 85.768 -33.4649
lowerback 3.2763 2.63419 -4.97127
upperback 3.45979 3.46629 3.46086
thorax 1.2362 1.63947 6.30016
lowerneck -15.05 -0.502128 0.912325
upperneck 37.2183 1.95417 -3.5947
head 15.7214 0.933167 -1.22722
rclavicle -4.96962e-015 -1.98785e-014
rhumerus -9.77886 2.77469 -102.907
rradius 30.2082
rwrist -46.0714
rhand -23.5834 -9.47024
rfingers 7.12502
rthumb 2.87965 -39.4305
lclavicle -4.96962e-015 -1.98785e-014
lhumerus -6.99266 -57.1698 105.219
lradius 24.8925
lwrist 35.2546
lhand 5.75548 65.8217
lfingers 7.12502
lthumb -148.91 86.7941
rfemur -30.4853 2.32681 11.7391
rtibia 32.8044
rfoot -11.2585 -8.04743
rtoes 0.50448
lfemur -26.467 7.6793 -9.82725
ltibia 28.1012
lfoot -12.0405 -3.20204
ltoes -20.8202
86
root -7.30404 17.7753 0.500717 -17.5995 85.2752 -31.7849
lowerback 3.2569 2.70073 -5.17317
upperback 3.48888 3.55147 3.41603
thorax 1.25688 1.67689 6.36669
lowerneck -14.8727 -0.389616 0.91733
upperneck 37.0049 2.09214 -3.59021
head 15.5771 0.988603 -1.20038
rclavicle -6.36111e-015 -7.95139e-016
rhumerus -9.8588 2.40339 -102.939
rradius 30.7133
rwrist -46.7411
rhand -23.9563 -9.6654
rfingers 7.12502
rthumb 2.51953 -39.6303
lclavicle -6.36111e-015 -7.95139e-016
lhumerus -6.89808 -59.6877 104.741
lradius 25.5298
lwrist 37.3491
lhand 4.9547 65.3961
lfingers 7.12502
lthumb -149.673 87.0762
rfemur -30.6804 2.59776 11.912
rtibia 32.8846
rfoot -11.2526 -7.70216
rtoes 1.15887
lfemur -26.2821 7.728 -9.58241
ltibia 28.0669
lfoot -12.0022 -2.70162
ltoes -21.05
87
root -7.31009 17.7761 0.519764 -16.0785 84.8474 -30.2508
lowerback 3.27486 2.71283 -5.44672
upperback 3.52386 3.56174 3.39824
thorax 1.26837 1.67549 6.50397
lowerneck -14.8205 -0.251011 0.917033
upperneck 36.8935 2.31041 -3.66207
head 15.519 1.06604 -1.19304
rclavicle 2.46493e-014 2.18663e-014
rhumerus -9.89591 2.02227 -102.921
rradius 31.1859
rwrist -47.0935
rhand -24.3654 -10.0929
rfingers 7.12502
rthumb 2.12446 -40.0621
lclavicle 2.46493e-014 2.18663e-014
lhumerus -6.50205 -61.5033 104.193
lradius 25.9605
lwrist 38.6033
lhand 4.50039 65.4226
lfingers 7.12502
lthumb -150.107 86.9709
rfemur -30.8253 2.84045 12.0274
rtibia 32.9354
rfoot -11.3018 -7.35076
rtoes 2.37975
lfemur -26.085 7.61222 -9.38086
ltibia 28.0266
lfoot -11.9866 -2.02395
ltoes -21.6778
